PathFileType	4	(X/Y/Z)	C:/Users/beibeiliu/ov580/test_trc/User1\sequence.34_training_dense_right.trc
DataRate	CameraRate	NumFrames	NumMarkers	Units	OrigDataRate	OrigDataStartFrame	OrigNumFrames
120	120	18	19	mm	120	205	234
Frame#	Time	ThumbCMC			ThumbMCP			ThumbIP			ThumbTip			IndexMCP			IndexPIP			IndexTip			MiddleMCP			MiddlePIP			MiddleTip			RingMCP			RingPIP			RingTip			PinkyMCP			PinkyPIP			PinkyTip			BackHand1			BackHand2			BackHand3	
		X0	Y0	Z0	X1	Y1	Z1	X2	Y2	Z2	X3	Y3	Z3	X4	Y4	Z4	X5	Y5	Z5	X6	Y6	Z6	X7	Y7	Z7	X8	Y8	Z8	X9	Y9	Z9	X10	Y10	Z10	X11	Y11	Z11	X12	Y12	Z12	X13	Y13	Z13	X14	Y14	Z14	X15	Y15	Z15	X16	Y16	Z16	X17	Y17	Z17	X18	Y18	Z18	
204	1.7	164.467	-9.96508	61.6881	150.653	-35.0295	43.2136	137.933	-48.093	22.6767	127.921	-63.3189	10.1316	207.241	-9.09164	-14.8706	210.355	-12.023	-40.8321	221.624	-19.9248	-65.9986	239.671	-18.7486	-10.0406	249.772	-29.0977	-36.3293	254.277	-46.1156	-63.47	248.337	-44.1535	-0.426896	242.439	-76.6498	-11.4642	218.381	-93.8541	1.3198	254.779	-58.6516	28.3097	242.374	-85.2746	20.5645	213.978	-92.5459	23.331	237.799	-11.9322	54.5505	231.921	-0.875575	85.4686	203.696	7.20231	56.1949	
205	1.70833	163.766	-16.0391	63.9018	145.127	-38.1484	48.3225	137.344	-53.2846	26.9958	130.218	-69.1151	10.9164	204.916	-15.9109	-11.7279	209.238	-19.3757	-38.3508	216.237	-25.8678	-57.4814	236.622	-24.966	-3.51689	246.547	-35.6182	-31.9789	253.679	-56.9754	-60.7678	248.982	-50.9658	4.28412	239.655	-78.0953	-9.70975	216.789	-97.4615	3.29807	251.543	-62.3697	32.6632	240.132	-88.7906	21.6452	209.119	-97.5427	26.3462	240.042	-16.9819	57.5585	227.869	-4.89322	89.9665	204.644	2.07176	59.6131	
206	1.71667	162.802	-19.7242	66.5208	145.389	-44.5807	48.3342	135.615	-59.6878	26.4735	128.002	-74.4083	12.9108	204.14	-20.3293	-7.46284	206.935	-24.9394	-32.3287	215.295	-33.1959	-56.7752	234.676	-29.0433	-0.0793665	245.392	-41.471	-28.1849	248.39	-62.3948	-55.7536	245.738	-53.8485	10.7791	236.389	-86.8481	-5.30614	213.798	-105.942	10.3954	250.364	-69.0692	35.4839	234.606	-93.2593	23.6054	207.9	-101.639	29.0499	234.615	-21.1237	59.8837	229.943	-13.6272	91.8786	203.894	-5.22335	63.5693	
207	1.725	161	-24.7347	74.0014	146.854	-48.9609	51.9218	134.176	-62.1831	29.5776	127.07	-77.6466	16.1164	199.889	-23.1269	-4.02926	207.045	-29.3307	-28.8344	211.34	-39.3272	-50.9946	233.347	-34.7915	-1.96462	241.455	-46.3494	-25.1427	242.732	-68.9011	-53.1602	242.253	-58.024	14.4743	232.5	-91.2824	-2.4187	213.313	-108.783	9.47548	247.523	-72.8468	38.8061	233.769	-100.809	28.8253	204.485	-104.673	31.9971	233.995	-25.3679	64.6714	229.107	-17.7316	100.57	201.442	-7.46848	70.9096	
208	1.73333	158.93	-28.8616	76.7188	142.722	-51.2332	56.9605	136.121	-64.5223	31.2878	127.345	-79.0949	12.7428	196.796	-24.6953	1.63428	201.353	-30.7182	-22.7644	208.192	-44.4089	-52.0985	229.022	-36.6185	1.19684	238.458	-50.3294	-22.7229	238.854	-72.9593	-46.9867	237.789	-59.5704	15.0384	230.525	-86.8604	-1.29378	209.965	-111.254	10.381	244.77	-79.2593	37.1934	233.777	-101.757	30.0704	202.398	-107.325	33.4911	230.211	-30.4461	68.4963	226.076	-22.178	100.49	201.079	-12.9317	71.7249	
209	1.74167	155.787	-31.6987	82.1197	143.115	-53.8164	57.6572	136.866	-65.0803	35.3536	129.278	-79.8162	13.9012	194.996	-26.3347	7.71859	201.367	-34.9405	-20.6307	205.899	-47.7748	-42.7779	227.42	-38.8202	8.5269	234.63	-52.9602	-20.3195	229.926	-74.9653	-45.0614	235.819	-60.8268	17.0468	226.34	-93.6272	0.593327	204.952	-114.606	13.3319	242.257	-79.5725	39.1201	225.576	-102.289	29.3271	198.695	-109.618	35.1455	232.983	-35.5387	71.962	225.805	-30.0816	106.51	200.78	-17.6964	78.6009	
210	1.75	159.766	-35.2424	88.676	145.367	-54.7197	59.8358	138.66	-65.8413	35.5101	130.654	-78.4008	20.2238	194.214	-26.5452	9.00848	200.162	-34.9668	-14.9083	199.749	-51.1756	-42.7872	227.021	-39.8543	8.19291	227.077	-50.9823	-19.6468	225.109	-75.4496	-39.8607	234.782	-60.2236	22.0835	222.951	-88.2328	1.06841	202.665	-110.327	9.0272	242.44	-78.3793	44.8096	226.107	-100.43	30.3209	197.648	-108.252	36.734	227.575	-36.3185	77.3935	223.039	-31.2653	113.368	197.475	-17.8945	85.7232	
211	1.75833	154.593	-36.5357	91.1558	138.223	-54.0669	66.9452	133.199	-63.33	38.9051	128.862	-77.0461	18.2851	192.927	-26.4198	12.002	196.708	-34.6127	-13.3327	195.296	-54.5642	-38.0773	221.939	-36.4369	14.7123	224.829	-50.5757	-13.575	219.308	-75.4693	-36.3995	231.159	-59.7796	21.2056	224.698	-87.4316	2.29224	204.356	-110.524	10.1759	241.302	-79.8075	43.8756	228.128	-96.6777	29.9455	196.409	-109.648	37.459	227.452	-37.1893	79.4995	223.219	-38.6028	117.244	198.492	-20.2006	89.2166	
212	1.76667	153.566	-38.6107	94.002	141.845	-56.0199	69.9536	132.314	-62.7257	41.6239	130.609	-75.5414	18.4623	190.845	-24.3776	17.4921	193.851	-33.5043	-7.27339	191.363	-54.5777	-32.6904	221.749	-36.168	15.4254	220.043	-47.368	-10.6469	214.818	-74.3433	-32.4979	234.203	-59.5259	23.6734	221.903	-81.9401	1.90212	203.098	-106.611	7.21587	240.565	-79.5759	44.173	224.972	-97.8566	29.0624	196.612	-108.573	37.3315	226.844	-38.4443	85.637	219.776	-40.0282	117.719	194.612	-22.2385	94.8116	
213	1.775	153.896	-41.1851	100.028	138.343	-54.4387	68.3965	133.878	-62.0685	41.8589	133.534	-72.9848	17.5615	188.397	-23.2314	24.9008	191.576	-31.9298	-4.4661	187.213	-54.8066	-29.0589	218.233	-33.7116	22.4586	218.691	-46.394	-9.4964	210.39	-77.0523	-30.8994	228.919	-53.3395	25.8761	222.767	-75.3939	3.71192	199.614	-101.82	4.34241	238.701	-75.3472	46.9126	225.776	-95.666	29.2736	197.372	-103.667	32.9288	225.99	-40.3987	91.8748	220.284	-43.6899	125.207	191.983	-23.8965	102.877	
214	1.78333	151.517	-42.7821	104.328	139.88	-55.7934	75.2925	132.608	-60.1095	43.8934	130.471	-71.2106	22.5985	187.627	-22.6831	26.2238	191.737	-32.672	-1.68355	184.811	-54.3047	-24.1524	214.874	-32.5157	23.1563	218.19	-45.8912	-5.25796	204.571	-71.6069	-28.5441	228.133	-51.2898	28.135	221.368	-73.1615	2.47089	203.481	-97.8165	2.2196	239.491	-75.8639	47.5638	223.153	-92.0655	27.9596	196.005	-103.253	31.224	227.673	-42.4149	90.2523	223.226	-45.3707	125.205	193.828	-28.0349	105.297	
215	1.79167	152.149	-44.4658	104.939	138.636	-55.2715	73.413	133.541	-59.9649	48.1616	130.253	-69.3565	23.319	188.719	-23.6248	27.2953	189.048	-31.7551	-2.14151	183.282	-54.5319	-21.4729	212.361	-32.0244	22.7771	214.102	-44.242	-4.82957	203.05	-73.632	-26.3402	230.202	-53.4284	31.2215	218.799	-71.5521	2.93366	202.178	-93.9278	2.12605	237.687	-73.8371	47.4197	227.255	-91.706	28.0616	199.192	-103.538	26.8394	223.861	-43.4675	94.1933	219.521	-47.338	127.116	190.944	-26.0402	105.3	
216	1.8	149.639	-44.9933	106.562	138.551	-57.0108	76.4774	135.123	-60.6277	47.2166	130.815	-68.6674	22.7051	185.698	-22.915	30.4138	187.916	-32.3216	0.949248	183.052	-56.5334	-19.6224	211.36	-32.0207	28.6871	211.91	-47.2473	-6.00271	197.516	-70.125	-24.7957	227.183	-51.4292	30.8289	221.051	-70.084	6.05756	198.483	-96.2955	4.18811	236.649	-74.4018	49.5642	222.398	-89.1119	28.7612	196.309	-106.768	30.564	223.159	-42.9321	93.0661	221.536	-48.9972	126.547	191.873	-31.3805	109.584	
217	1.80833	150.379	-47.5067	108.496	134.979	-57.2445	78.1901	131.319	-60.0174	47.0738	131.933	-70.3422	26.664	183.575	-21.7708	31.3207	184.915	-31.8547	0.632819	179.803	-57.9452	-18.5974	213.582	-33.7523	26.0628	212.21	-46.5595	-4.09272	197.731	-75.0399	-23.5618	226.706	-52.4415	31.6304	220.298	-73.3198	6.31226	198.598	-96.1456	4.38786	236.711	-74.6101	50.5764	224.72	-89.5244	29.2293	196.67	-102.325	28.2138	222.794	-47.9862	96.1269	220.742	-50.1041	126.869	191.112	-31.6692	108.334	
218	1.81667	150.147	-48.4812	109.586	135.337	-58.2917	76.9583	130.597	-60.8897	47.1632	129.199	-70.4297	24.7762	182.691	-23.7788	32.2013	183.444	-34.0491	1.29871	179.978	-61.3772	-17.9264	210.147	-31.9504	28.1962	211.196	-46.8497	-4.38068	197.334	-75.151	-22.9851	225.423	-53.4334	31.9479	221.545	-71.8545	7.61682	200.144	-97.2643	6.1244	233.886	-71.8832	51.7927	227.418	-89.2703	29.3613	194.396	-103.209	30.7116	221.737	-45.7564	98.9727	216.652	-49.4803	130.19	192.032	-32.3797	109.035	
219	1.825	150.009	-50.8798	110.662	131.857	-58.8028	78.4733	130.233	-61.0243	48.1989	130.535	-71.9987	25.448	185.055	-27.0035	34.3338	185.551	-37.3077	1.69181	180.084	-59.5633	-15.8656	211.578	-32.9639	28.1295	210.661	-45.6489	-1.40832	197.332	-72.3857	-21.0378	227.291	-55.4515	33.6025	217.96	-72.3602	8.26473	197.894	-98.2656	5.989	233.316	-73.3679	49.8483	224.659	-87.3772	30.8244	197.763	-104.822	29.3036	221.35	-48.5465	98.0743	214.745	-51.9647	130.258	187.176	-34.4915	112.048	
220	1.83333	146.561	-48.647	110.8	134.324	-58.2083	77.047	128.852	-62.4165	49.3427	132.719	-71.95	23.4501	181.35	-25.2571	31.1588	182.087	-36.6757	0.487643	175.59	-60.0369	-17.4895	212.604	-34.6385	28.3405	207.059	-46.5766	-4.19227	198.398	-75.0831	-19.9503	225.054	-54.1362	38.2382	219.231	-74.4044	8.71151	197.979	-98.4144	6.40093	231.802	-75.0924	51.7398	223.208	-93.7271	29.1823	196.246	-104.43	27.6665	222.173	-50.2245	98.0516	212.913	-54.4358	132.667	188.485	-33.7689	106.94	
221	1.84167	146.888	-49.3988	109.141	130.506	-59.2813	79.1063	129.79	-62.9362	52.1636	131.897	-71.833	24.0968	183.895	-26.9384	31.7246	184.798	-36.5801	4.56669	175.11	-58.518	-16.4587	211.283	-36.1199	31.437	204.79	-46.5392	-3.69537	195.659	-74.6309	-20.4149	225.286	-56.6816	39.0546	218.028	-76.1716	8.19214	197.355	-97.1797	4.98273	235.783	-79.1937	54.0261	223.515	-90.8225	31.8147	199.39	-109.203	27.0659	220.231	-49.3147	100.923	211.334	-54.3002	133.063	188.349	-33.7525	111.351	
